<!-- Logotipo Mallorca. Exportado de Figma y limpiado: se quitaron los
     rectángulos de fondo del canvas y el trazo usa currentColor, para
     que funcione sobre el azul del sidebar y sobre fondo claro. -->
<svg xmlns="http://www.w3.org/2000/svg" viewBox="0 0 209 73" role="img"
     aria-label="Mallorca">
  <path fill="currentColor" fill-rule="evenodd" clip-rule="evenodd" d="M47.9042 62.2968C47.6667 62.0652 47.4789 61.7625 47.3578 61.4161C47.2366 61.0697 47.186 60.6907 47.2106 60.3134C47.2106 59.8726 47.4509 57.9442 47.511 57.5103C47.5983 56.8974 47.6912 56.2845 47.7786 55.6715C48.0385 53.8896 48.2064 52.0883 48.2811 50.279C48.3248 49.0875 48.1172 47.7997 47.1887 47.2763C46.7476 47.0791 46.2766 47.012 45.8117 47.08C45.3468 47.1481 44.9005 47.3495 44.5069 47.6688C44.0591 48.0476 43.6221 48.4746 43.2016 48.8947C42.6171 49.4732 42.0437 50.0586 41.4756 50.6509C40.9076 51.2432 40.2412 51.9594 39.6295 52.6275C39.2199 53.082 38.7993 53.5434 38.4115 54.0049C37.8367 54.744 37.2076 55.4127 36.5327 56.0021C36.0902 56.3602 35.3911 56.8492 34.8941 56.4153C34.73 56.2305 34.6118 55.9898 34.5536 55.7222C34.4955 55.4546 34.4999 55.1715 34.5664 54.9071C34.6997 54.0907 34.9106 53.2975 35.1945 52.5448C35.7204 51.1421 36.1676 49.6946 36.5327 48.2129C36.8931 46.5876 37.2154 44.1909 35.9319 43.0545C33.6379 40.9953 28.755 44.8383 26.7833 46.4223C26.0787 46.9939 25.385 47.6206 24.7078 48.2473C23.7938 49.083 22.8835 49.9346 21.9768 50.8024C20.8845 51.8423 19.8358 52.8685 18.7871 53.9704C18.3884 54.3768 17.9952 54.79 17.6019 55.217C17.3725 55.4649 17.1267 55.7335 16.9137 56.009C16.5294 56.5491 16.0533 56.9729 15.5209 57.2486C15.3207 57.3553 15.1013 57.3917 14.8859 57.3541C14.6706 57.3166 14.4673 57.2064 14.2975 57.0351C14.1481 56.849 14.0391 56.6177 13.9807 56.3633C13.9224 56.1089 13.9168 55.8399 13.9643 55.582C14.0691 54.9532 14.2983 54.368 14.6307 53.8809C16.1764 51.4842 17.7494 49.1082 19.3279 46.7391C22.3428 42.2074 25.4014 37.7033 28.5147 33.275C31.3713 29.1982 33.9305 24.8049 36.1613 20.1484C36.9587 18.5161 37.707 16.8633 38.417 15.1553C38.8594 14.1085 39.2854 13.0479 39.7333 12.0079C40.7117 9.9114 41.4335 7.64066 41.8743 5.27245C42.0546 4.03279 42.0928 2.55897 41.4429 1.51215C39.8535 -1.0085 34.8613 0.251825 32.7913 0.83722C32.0873 1.05658 31.3958 1.33498 30.7213 1.67055C29.7764 2.1182 28.8478 2.62784 27.9303 3.15814C25.6674 4.4849 23.4614 5.96076 21.3214 7.57959C19.5684 8.88335 17.8778 10.316 16.2583 11.8702C15.5009 12.6094 14.7563 13.3647 14.0244 14.136C11.867 16.4087 9.79694 18.8261 7.7979 21.3192C6.17391 23.3439 4.59362 25.41 3.05702 27.5175C1.80626 29.2805 0.358873 31.7254 0.0693949 34.1152C-0.0431411 34.7547 -0.0184558 35.4204 0.140908 36.0438C0.300272 36.6672 0.588554 37.2258 0.976061 37.662C1.54112 38.1877 2.21197 38.5027 2.91212 38.5708C3.61226 38.639 4.31351 38.4578 4.9359 38.0477C8.75919 35.651 5.99549 31.0229 8.4424 28.1442C11.7915 23.9567 15.3925 20.1023 19.2132 16.6153C20.6114 15.3412 22.0424 14.1291 23.4898 12.9515C24.6422 12.0148 25.8056 11.1057 26.958 10.1967C28.7606 8.68601 30.7054 7.46449 32.7476 6.56032C33.6106 6.20219 35.5495 5.51349 36.2541 6.56032C36.7293 7.28345 36.3306 8.62642 36.0902 9.41154C35.6633 10.6986 35.1612 11.9439 34.5882 13.1374C34.0093 14.3771 33.3866 15.6029 32.7257 16.7806C31.9993 18.0754 31.2128 19.3426 30.4427 20.596C29.3212 22.4096 28.1888 24.2094 27.0454 25.9954C25.527 28.3577 23.9813 30.7337 22.3701 32.9926C21.2504 34.5629 20.1854 36.2157 19.093 37.8548C17.6784 40.0518 16.2856 42.2763 14.9092 44.5077C13.6785 46.5187 12.4532 48.5572 11.2334 50.6233C10.2612 52.2625 9.28899 53.9084 8.36593 55.5958C7.49189 57.2029 6.69837 58.8775 5.99003 60.6095C4.99598 63.0062 2.90955 68.743 4.38971 71.3463C4.6327 71.7759 4.96548 72.1121 5.351 72.3174C5.72648 72.5241 6.12743 72.6476 6.53622 72.6824C7.80632 72.6811 9.04551 72.1883 10.0864 71.2706C11.4231 70.1724 12.6692 68.908 13.8059 67.4965C14.8983 66.188 15.9907 64.8175 17.083 63.5089C18.0989 62.306 19.1349 61.1283 20.1908 59.9759C21.6276 58.3736 23.1318 56.8701 24.6968 55.4718C25.4014 54.852 27.0673 53.4057 27.9739 53.6261C28.1404 53.6668 28.2962 53.7591 28.4273 53.8947C29.0772 54.5834 28.8478 56.1123 28.684 57.0076C28.3934 58.4794 28.0286 59.9264 27.5916 61.3395C27.3731 62.104 27.1437 62.8684 26.9253 63.6329C26.319 65.7472 25.8329 69.0874 27.4715 70.699C28.5638 71.7733 30.1587 71.5598 31.3931 70.9813C33.3994 69.9164 35.1181 68.1415 36.3415 65.8712C36.97 64.7216 37.6852 63.6515 38.4771 62.6756C39.0233 62.0558 39.8808 61.1811 40.6618 61.6288C40.7565 61.6816 40.8448 61.7512 40.924 61.8354C41.4265 62.3863 41.4702 63.4125 41.4702 64.1839C41.4702 65.1825 41.3773 66.1673 41.3937 67.1728C41.4265 68.9703 41.6832 71.6425 43.1906 72.4827C44.3212 73.1163 45.856 72.586 47.0139 71.9799C50.8809 69.9138 55.8785 64.1494 57.2658 64.7004C57.43 64.7656 57.5779 64.8838 57.6948 65.0433C57.8117 65.2027 57.8935 65.3979 57.9322 65.6095C58.1033 66.6189 58.3333 67.611 58.6203 68.5778C58.7019 68.8658 58.7949 69.1486 58.8989 69.4249C59.1461 70.1031 59.5033 70.7084 59.9476 71.2017C61.2311 72.5791 63.0827 72.9717 64.7321 72.8477C66.809 72.6526 68.823 71.8611 70.62 70.5337C72.3791 69.2671 73.8384 67.4317 74.8475 65.2169C75.1752 64.4662 75.7596 63.4538 76.557 63.7086C76.7132 63.766 76.8588 63.8619 76.9854 63.9908C77.112 64.1196 77.217 64.2789 77.2944 64.4593C77.687 65.3911 78.1715 66.2566 78.7363 67.0351C80.6825 69.5849 83.1801 71.3571 85.9186 72.1314C93.101 73.7292 98.5737 66.6218 100.256 70.3202C100.33 70.8365 100.501 71.3228 100.756 71.7375C101.011 72.1523 101.342 72.4833 101.72 72.7024C102.098 72.9215 102.512 73.0222 102.928 72.9959C103.343 72.9697 103.748 72.8172 104.107 72.5516C104.344 72.3577 104.547 72.104 104.703 71.8066C104.859 71.5091 104.965 71.1742 105.013 70.8229C105.026 70.7508 105.05 70.6828 105.085 70.6235C105.12 70.5641 105.164 70.5147 105.215 70.4786C105.753 70.0793 106.271 69.6401 106.766 69.1631C107.411 68.5295 108.219 67.8959 109.071 68.1921C109.716 68.4125 110.295 69.1563 110.846 69.6246C115.216 73.4331 121.06 70.3133 124.283 65.8023C125.655 63.8038 126.428 61.262 126.467 58.6192C126.506 57.6084 126.462 56.5953 126.336 55.5958C126.278 55.0321 126.172 54.4779 126.019 53.9429C125.975 53.8076 125.955 53.662 125.959 53.5159C126.019 52.1385 128.374 51.6771 129.182 51.56C129.99 51.4429 132.251 51.2432 132.656 52.5655C132.719 52.7692 132.734 52.9916 132.699 53.206C132.702 53.238 132.702 53.2703 132.699 53.3024C132.557 53.7776 132.432 54.2803 132.317 54.7762C132.035 56.014 131.813 57.272 131.651 58.5434C131.208 61.7803 131.104 65.4304 132.049 68.5709C132.656 70.637 133.737 72.5653 135.654 72.4414C136.859 72.2918 137.989 71.6342 138.86 70.575C139.286 70.0447 139.674 69.4524 140.056 68.8739C140.766 67.7995 141.832 66.1191 142.989 65.8574C143.3 65.7825 143.621 65.8484 143.896 66.0433C144.371 66.529 144.711 67.1921 144.868 67.9373C145.106 68.7659 145.457 69.5352 145.906 70.21C147.747 72.7719 151.625 72.4689 154.055 72.0764C154.981 71.9042 155.894 71.6394 156.786 71.2843C157.851 70.8849 158.911 70.4097 159.948 69.9069C161.319 69.2182 162.679 68.4813 163.996 67.6618C164.542 67.3174 165.088 66.9731 165.601 66.5943C165.979 66.3273 166.344 66.033 166.694 65.7128C167.273 65.1894 168.234 64.418 168.982 64.7141C169.146 64.7806 169.293 64.8992 169.41 65.0584C169.527 65.2177 169.609 65.4122 169.649 65.6232C169.818 66.6325 170.046 67.6247 170.331 68.5915C170.419 68.8808 170.512 69.1631 170.615 69.4386C170.863 70.1169 171.22 70.7222 171.664 71.2155C172.948 72.5929 174.799 72.9854 176.449 72.8615C178.524 72.668 180.537 71.8763 182.331 70.5474C184.114 69.3043 185.597 67.4768 186.624 65.2582C186.957 64.5075 187.542 63.4951 188.334 63.75C188.491 63.8072 188.637 63.903 188.764 64.0318C188.892 64.1607 188.998 64.32 189.076 64.5006C189.469 65.4324 189.954 66.2979 190.518 67.0764C191.778 68.8912 193.392 70.2607 195.199 71.0502C198.646 72.5225 202.343 72.8008 205.904 71.856C206.832 71.699 207.694 71.1674 208.362 70.3408C208.581 70.0569 208.75 69.7185 208.859 69.3473C208.969 68.9761 209.015 68.5803 208.996 68.1852C208.951 67.5967 208.786 67.0329 208.516 66.5498C208.246 66.0666 207.88 65.6808 207.456 65.4304C206.27 64.7417 204.954 65.148 203.878 65.9538C202.207 67.2004 200.055 66.7871 198.307 66.002C196.942 65.3871 195.668 64.4886 194.538 63.3436C193.247 61.9625 192.236 60.213 191.589 58.2404C191.31 57.4208 190.77 55.4856 190.95 54.5489C191.043 54.0875 191.523 53.5916 191.802 53.268C192.188 52.8429 192.531 52.3595 192.823 51.8286C193.046 51.4366 193.169 50.9685 193.176 50.4862C193.183 50.004 193.073 49.5306 192.862 49.1289C191.6 46.3741 190.038 46.9044 187.919 47.1936C187.573 47.2537 187.232 47.3458 186.897 47.4691C186.384 47.6482 185.881 47.8479 185.379 48.0545C184.101 48.5917 182.839 49.1908 181.588 49.8176C180.496 50.3548 179.404 50.9126 178.371 51.5049C177.568 51.9525 176.733 52.414 175.984 52.9374C174.974 53.6261 173.931 54.2528 172.904 54.8795C171.426 55.7978 169.942 56.6977 168.453 57.5792L164.012 60.2445C162.985 60.8643 161.953 61.4841 160.937 62.1315C159.484 63.0544 158.031 63.9497 156.513 64.6935C154.727 65.5681 150.549 67.4483 149.555 64.177C149.3 63.366 149.208 62.4884 149.287 61.6219C149.56 58.7156 151.69 56.2913 153.482 54.7349C154.556 53.7963 155.684 52.9606 156.857 52.2349C157.715 51.6763 158.6 51.1864 159.506 50.768C160.255 50.4005 161.059 50.2476 161.86 50.3203C162.4 50.4139 162.934 50.5496 163.46 50.7267C163.942 50.885 164.448 50.885 164.93 50.7267C165.322 50.6117 165.685 50.376 165.987 50.0407C166.289 49.7054 166.521 49.2809 166.661 48.8052C166.795 48.2898 166.831 47.7417 166.766 47.2055C166.7 46.6694 166.535 46.1603 166.284 45.7198C166.113 45.4 165.903 45.1164 165.662 44.8796C163.684 42.9237 159.834 44.0532 157.665 44.8796C156.333 45.4001 155.028 46.021 153.755 46.7391C152.783 47.2831 151.805 47.8823 150.876 48.5435C149.699 49.3994 148.568 50.3518 147.49 51.3947C146.206 52.6137 144.956 53.9153 143.76 55.2721C143.295 55.8024 142.837 56.3396 142.394 56.8905C142.116 57.2349 141.848 57.5792 141.575 57.9787L140.936 58.9291C140.319 59.8382 138.937 61.9456 137.872 60.8092C136.938 59.8106 137.047 59.6797 137.102 58.2128C137.218 57.3158 137.438 56.4454 137.757 55.6302C138.15 54.4938 138.571 53.3781 138.959 52.2418C139.199 51.5531 139.428 50.8644 139.625 50.1137C139.749 49.7442 139.807 49.345 139.796 48.9441C139.784 48.5432 139.704 48.1503 139.559 47.7928C138.685 45.8369 135.638 45.3341 134.032 45.3961C131.077 45.5132 128.106 46.195 125.178 46.6427C124.288 46.7804 123.392 47.0008 122.518 47.2281C121.399 47.5242 120.29 47.8548 119.181 48.206C117.854 48.6261 116.527 49.0807 115.221 49.5834C114.703 49.79 114.178 50.0035 113.665 50.2377C113.308 50.3927 112.96 50.5768 112.622 50.7886C112.312 50.9549 112.046 51.2268 111.853 51.5736C111.66 51.9204 111.548 52.3284 111.529 52.7514C111.506 53.1818 111.547 53.6139 111.649 54.0255C111.689 54.1508 111.691 54.2901 111.655 54.417C111.619 54.5439 111.547 54.6497 111.453 54.7142C109.847 55.8712 107.793 58.082 107.629 60.5613C107.626 60.6309 107.612 60.699 107.587 60.7616C107.563 60.8243 107.529 60.8802 107.487 60.9263C107.072 61.4153 106.357 62.1384 105.767 61.6632C105.594 61.4695 105.461 61.2248 105.381 60.9508C105.301 60.6768 105.276 60.3821 105.308 60.093C105.494 45.5683 105.548 32.18 105.647 17.6484C105.647 13.7848 100.895 14.6732 100.846 19.1153C100.802 23.2475 100.666 30.6097 100.578 34.7281C100.48 39.572 100.387 44.4113 100.3 49.2459C100.267 51.2225 100.212 53.1991 100.212 55.1757C100.212 56.8148 100.518 61.1122 97.1973 63.5296C93.9967 65.8643 88.7042 67.0557 86.4539 66.0227C85.0985 65.4044 83.8341 64.506 82.7125 63.3643C81.4239 61.9831 80.4132 60.2366 79.7631 58.2679C79.49 57.4484 78.9439 55.5131 79.1241 54.5765C79.2169 54.1151 79.7031 53.6192 79.9761 53.2955C80.3727 52.8655 80.7234 52.3724 81.0194 51.8286C81.2417 51.4366 81.3648 50.969 81.3726 50.4872C81.3804 50.0055 81.2725 49.532 81.0631 49.1289C79.7959 46.3741 78.2393 46.9044 76.1146 47.1936C75.7693 47.2543 75.428 47.3463 75.0933 47.4691C74.5853 47.6482 74.0774 47.8479 73.5749 48.0545C72.3023 48.5917 71.0351 49.1908 69.7844 49.8176C68.692 50.3548 67.6324 50.9126 66.5673 51.5049C65.7699 51.9525 64.9288 52.414 64.1805 52.9374C63.1755 53.6261 62.1269 54.2528 61.1 54.8795C59.0081 56.1605 49.6302 64.1976 47.9042 62.2968ZM94.1879 59.8588C94.1278 64.7417 89.0592 64.4387 89.0592 59.7899C89.0592 56.2707 89.1193 52.7445 89.1739 49.2253C89.2504 44.5513 89.3396 39.8727 89.4415 35.1896C89.5671 29.2254 89.6982 23.6745 89.8348 17.7104C89.8348 15.0382 94.7504 14.3839 94.7504 19.3357C94.7504 25.045 94.4118 34.1841 94.3736 39.8934C94.3244 46.5462 94.2752 53.206 94.1933 59.8657L94.1879 59.8588ZM64.4208 66.7458C64.0474 66.5343 63.7179 66.2165 63.4582 65.8174C63.1986 65.4183 63.0158 64.9487 62.9243 64.4456C62.8528 63.7521 62.9325 63.0472 63.1548 62.4066C63.3771 61.7659 63.7336 61.2137 64.186 60.8092C65.0634 59.9672 65.9749 59.1834 66.9169 58.4608C67.616 57.9029 69.9045 56.0916 70.6746 55.9952C70.9594 55.957 71.2473 55.978 71.5267 56.0572C71.671 56.1021 71.8104 56.1691 71.9418 56.2569C72.9577 56.9456 72.7774 58.4814 72.4497 59.6247C71.9909 61.2087 70.6637 63.1301 69.7188 64.2734C68.4899 65.7128 66.2232 67.8409 64.4591 66.7458H64.4208ZM176.247 66.7458C175.873 66.5352 175.543 66.2177 175.283 65.8184C175.023 65.4192 174.841 64.9491 174.75 64.4456C174.679 63.7521 174.758 63.0472 174.981 62.4066C175.203 61.7659 175.559 61.2137 176.012 60.8092C176.889 59.9672 177.801 59.1834 178.743 58.4608C179.442 57.9029 181.73 56.0916 182.5 55.9952C182.785 55.9572 183.073 55.9781 183.352 56.0572C183.496 56.1032 183.636 56.1702 183.768 56.2569C184.778 56.9456 184.598 58.4814 184.27 59.6247C183.817 61.2087 182.489 63.1301 181.539 64.2734C180.31 65.7128 178.044 67.8409 176.279 66.7458H176.247ZM115.899 64.9345C115.582 65.0645 115.247 65.1016 114.917 65.0431C114.588 64.9846 114.273 64.8321 113.998 64.5971C112.971 63.6604 112.84 61.6288 112.977 60.1756C113.113 58.7225 113.687 56.2982 115.008 55.9745C115.189 55.9272 115.374 55.9272 115.555 55.9745C116.306 56.2128 117.095 56.1914 117.838 55.9126C118.826 55.396 119.7 54.7073 120.814 54.8175C120.972 54.832 121.126 54.8858 121.268 54.9759C121.545 55.2211 121.767 55.5535 121.91 55.9402C122.054 56.3268 122.115 56.7542 122.087 57.1798C122.093 58.1706 121.879 59.1439 121.47 59.9897C120.132 62.7238 118.351 64.115 115.899 64.9345Z"/>
</svg>
